<svg id="Layer_1" data-name="Layer 1" xmlns="http://www.w3.org/2000/svg" viewBox="0 0 1129.82 332.02"><defs><style>.cls-1,.cls-3{fill:#4e5ca6;}.cls-2{font-size:234.5px;fill:#fff;font-family:AldotheApache, Aldo the Apache;}.cls-3{font-size:96.59px;font-family:AllerDisplay, Aller Display;}</style></defs><title>logo-light</title><path class="cls-1" d="M121.65,272.55c1.35-7,2.22-14.08,4.13-20.9Q147.5,174.27,169.53,97c2.68-9.48,5.25-19,7.88-28.52h26.13q-12.1,42.27-24.2,84.53c-9.67,33.85-19.23,67.69-29,101.51-1.72,6.12-4.1,12.06-6.18,18.09Z" transform="translate(-26.7 0)"/><path class="cls-1" d="M26.7,166.93c10.21-10.14,20.24-20.42,30.6-30.38,14-13.53,28.37-26.82,42.62-40.16A21.61,21.61,0,0,1,103.69,94c3.94,3.82,7.57,7.75,11.59,11.19s3.89,7.18.4,10.55C104.05,127,92.2,138,80.48,149.11c-6.44,6.11-12.76,12.36-19.2,18.46-2.75,2.58-1.26,4.31.79,6.32q20.61,20,41.1,40c4.37,4.31,8.61,8.75,12.91,13,3.4,3.29,3.27,6.34,0,9.53-2,1.91-3.9,3.93-5.85,5.89-5.81,5.86-8.14,5.85-14.29-.24-9.4-9.32-18.71-18.72-28.14-28Q49.24,195.76,30.57,177.6c-1.25-1.23-2.58-2.37-3.87-3.55Z" transform="translate(-26.7 0)"/><path class="cls-1" d="M273.92,169.27c-4.16-3.22-8.51-6-12.13-9.47C250,148.35,238.61,136.54,227,125.05c-3.2-3.17-7-5.77-10.1-9-3.56-3.69-4.21-7.1.26-11.42,13.47-13,10.73-12.52,23.67.27,16.36,16.19,33,32.18,49.49,48.22,3.35,3.26,7.43,5.95,10.15,9.65,5.33,7.26,4.7,11.84-1.81,18.09q-29.4,28.33-58.93,56.52c-2.42,2.32-4.69,4.81-7.07,7.17-3.18,3.14-6.37,3.37-9.6,0-2.73-2.85-5.53-5.64-8.35-8.4-3-3-3.51-5.38,0-8.75,17.64-17,35-34.19,52.53-51.33C268.84,174.43,270.47,172.76,273.92,169.27Z" transform="translate(-26.7 0)"/><text class="cls-2" transform="translate(353.04 202.9)">Mostefa</text><text class="cls-3" transform="translate(353.04 307.97)">WEB DEVELOPER</text></svg>