<svg id="Layer_1" data-name="Layer 1" xmlns="http://www.w3.org/2000/svg" viewBox="0 0 330.7 330.7"><defs><style>.cls-1{fill:#fff;stroke:#f4f4f4;stroke-miterlimit:10;stroke-width:2px;}.cls-2{fill:#4e5ca6;}</style></defs><title>logo</title><path class="cls-1" d="M943.08,7.7h150.5a89.11,89.11,0,0,1,89.1,89.1V247.3a89.11,89.11,0,0,1-89.1,89.1H943.08A89.11,89.11,0,0,1,854,247.3V96.8A89.11,89.11,0,0,1,943.08,7.7Z" transform="translate(-852.98 -6.7)"/><path class="cls-2" d="M971.31,281.84c1.46-7.5,2.4-15.15,4.45-22.48q23.37-83.27,47.09-166.42c2.89-10.21,5.65-20.45,8.47-30.68h28.09q-13,45.47-26,90.93c-10.39,36.4-20.68,72.83-31.15,109.2-1.89,6.58-4.41,13-6.65,19.45Z" transform="translate(-852.98 -6.7)"/><path class="cls-2" d="M869.17,168.22c11-10.91,21.78-22,32.92-32.68,15.14-14.56,30.52-28.86,45.85-43.22A24.28,24.28,0,0,1,952,89.79c4.23,4.11,8.14,8.3,12.46,12s4.19,7.73.43,11.35C952.39,125.22,939.64,137,927,149c-6.94,6.57-13.73,13.29-20.67,19.86-3,2.8-1.35,4.66.86,6.8q22.15,21.47,44.2,43.05c4.71,4.61,9.22,9.41,14,14,3.65,3.54,3.51,6.82-.06,10.25-2.15,2.06-4.19,4.22-6.29,6.33-6.26,6.31-8.76,6.3-15.38-.25-10.11-10-20.13-20.15-30.27-30.14q-20-19.68-40-39.21c-1.34-1.31-2.77-2.54-4.16-3.81Z" transform="translate(-852.98 -6.7)"/><path class="cls-2" d="M1135.12,170.73c-4.47-3.46-9.16-6.44-13-10.23-12.64-12.31-24.95-25-37.49-37.38-3.44-3.41-7.5-6.21-10.86-9.69-3.83-4-4.54-7.62.28-12.28,14.49-14,11.55-13.46,25.47.29,17.62,17.42,35.45,34.62,53.23,51.88,3.61,3.51,8,6.4,10.92,10.39,5.73,7.81,5,12.73-1.93,19.47q-31.64,30.48-63.41,60.82c-2.61,2.5-5,5.18-7.61,7.72-3.42,3.38-6.84,3.62-10.32,0-2.94-3.07-5.95-6.07-9-9-3.24-3.17-3.78-5.78,0-9.41,19-18.26,37.7-36.78,56.51-55.22C1129.67,176.29,1131.41,174.48,1135.12,170.73Z" transform="translate(-852.98 -6.7)"/></svg>