<svg id="Layer_1" data-name="Layer 1" xmlns="http://www.w3.org/2000/svg" viewBox="0 0 1093.6 332.02"><defs><style>.cls-1,.cls-3{fill:#4e5ca6;}.cls-2{font-size:234.5px;fill:#303031;font-family:AldotheApache, Aldo the Apache;}.cls-3{isolation:isolate;font-size:96.59px;font-family:AllerDisplay, Aller Display;}</style></defs><title>logo-dark-ar</title><path class="cls-1" d="M929.31,270.28c1.35-7,2.22-14.08,4.13-20.9Q955.16,172,977.19,94.73c2.68-9.48,5.25-19,7.88-28.52h26.13L987,150.74c-9.67,33.85-19.23,67.69-29,101.51-1.72,6.12-4.1,12.06-6.18,18.09Z" transform="translate(-18.11 0)"/><path class="cls-1" d="M834.36,164.66c10.21-10.14,20.24-20.42,30.6-30.38,14-13.53,28.37-26.82,42.62-40.16a20.88,20.88,0,0,1,3.77-2.39c3.94,3.82,7.57,7.75,11.59,11.19s3.89,7.18.4,10.55c-11.63,11.26-23.48,22.26-35.2,33.37-6.44,6.11-12.76,12.36-19.2,18.46-2.75,2.58-1.26,4.31.79,6.32q20.61,20,41.1,40c4.37,4.31,8.61,8.75,12.91,13,3.4,3.29,3.27,6.34,0,9.53-2,1.91-3.9,3.93-5.85,5.89-5.81,5.86-8.14,5.85-14.29-.24-9.4-9.32-18.71-18.72-28.14-28q-18.56-18.31-37.23-36.47c-1.25-1.23-2.58-2.37-3.87-3.55Z" transform="translate(-18.11 0)"/><path class="cls-1" d="M1081.58,167c-4.16-3.22-8.51-6-12.13-9.47-11.79-11.45-23.18-23.26-34.79-34.75-3.2-3.17-7-5.77-10.1-9-3.56-3.69-4.21-7.1.26-11.42,13.47-13,10.73-12.52,23.67.27,16.36,16.19,33,32.18,49.49,48.22,3.35,3.26,7.43,6,10.15,9.65,5.33,7.26,4.7,11.84-1.81,18.09q-29.4,28.32-58.93,56.52c-2.42,2.32-4.69,4.81-7.07,7.17-3.18,3.14-6.37,3.37-9.6,0-2.73-2.85-5.53-5.64-8.35-8.4-3-3-3.51-5.38,0-8.75,17.64-17,35-34.19,52.53-51.33C1076.5,172.16,1078.13,170.49,1081.58,167Z" transform="translate(-18.11 0)"/><text class="cls-2" transform="translate(0 202.9)">Mostefa</text><text class="cls-3" transform="translate(0 307.97)">WEB DEVELOPER</text></svg>